<svg aria-hidden="true" style="position: absolute; width: 0; height: 0; overflow: hidden;" version="1.1" xmlns="http://www.w3.org/2000/svg" xmlns:xlink="http://www.w3.org/1999/xlink">
<defs>
<symbol id="icon-angle-right" viewBox="0 0 15 32">
<path d="M13.282 17.007l-8.054 8.051c-0.256 0.258-0.611 0.418-1.004 0.418s-0.747-0.16-1.004-0.418l-1.337-1.337c-0.258-0.256-0.417-0.611-0.417-1.003s0.159-0.747 0.417-1.003l5.708-5.71-5.708-5.708c-0.258-0.256-0.417-0.611-0.417-1.003s0.159-0.747 0.417-1.003l0-0 1.332-1.351c0.256-0.258 0.611-0.418 1.004-0.418s0.747 0.16 1.004 0.418l8.052 8.052c0.563 0.556 0.563 1.457 0.007 2.014z"></path>
</symbol>
<symbol id="icon-linkedin" viewBox="0 0 32 32">
<path d="M7.25 32v-21.099h-6.562v21.099h6.562zM3.934 8.078c2.116 0 3.81-1.764 3.81-3.881 0-2.046-1.693-3.74-3.81-3.74-2.047 0-3.74 1.694-3.74 3.74 0 2.117 1.693 3.881 3.74 3.881zM31.736 32h0.071v-11.572c0-5.646-1.271-10.021-7.904-10.021-3.175 0-5.292 1.764-6.209 3.387h-0.071v-2.893h-6.28v21.099h6.563v-10.443c0-2.752 0.493-5.363 3.881-5.363 3.386 0 3.458 3.104 3.458 5.574v10.232h6.491z"></path>
</symbol>
<symbol id="icon-youtube" viewBox="0 0 45 32">
<path d="M43.665 5.831c-0.486-1.944-2.027-3.484-3.89-3.97-3.483-0.972-17.256-0.972-17.256-0.972s-13.855 0-17.338 0.972c-1.862 0.486-3.403 2.027-3.889 3.97-0.972 3.401-0.972 10.694-0.972 10.694s0 7.211 0.972 10.695c0.486 1.944 2.025 3.401 3.889 3.889 3.484 0.891 17.338 0.891 17.338 0.891s13.773 0 17.256-0.891c1.864-0.486 3.404-1.944 3.89-3.889 0.972-3.484 0.972-10.695 0.972-10.695s0-7.291-0.972-10.694zM17.982 23.087v-13.125l11.505 6.562-11.505 6.562z"></path>
</symbol>
<symbol id="icon-twitter" viewBox="0 0 37 32">
<path d="M33.469 8.284c1.458-1.094 2.771-2.406 3.792-3.938-1.312 0.583-2.844 1.021-4.375 1.167 1.604-0.948 2.771-2.406 3.355-4.229-1.386 0.837-2.994 1.492-4.705 1.875l-0.108 0.020c-1.399-1.483-3.378-2.405-5.572-2.405-0.015 0-0.030 0-0.045 0h0.002c-0 0-0.001 0-0.001 0-4.228 0-7.655 3.427-7.655 7.655v0c0 0.583 0.074 1.167 0.22 1.75-6.382-0.384-11.99-3.409-15.794-7.985l-0.029-0.036c-0.657 1.094-1.021 2.406-1.021 3.865 0 2.625 1.312 4.959 3.426 6.345-1.239-0.074-2.479-0.365-3.499-0.948v0.073c0 3.719 2.624 6.782 6.124 7.51-0.582 0.146-1.312 0.292-1.968 0.292-0.511 0-0.948-0.074-1.459-0.146 0.949 3.062 3.792 5.25 7.147 5.323-2.625 2.043-5.906 3.282-9.479 3.282-0.656 0-1.239-0.074-1.823-0.146 3.355 2.187 7.364 3.427 11.74 3.427 14.073 0 21.729-11.595 21.729-21.729v-1.021z"></path>
</symbol>
<symbol id="icon-facebook" viewBox="0 0 32 32">
<path d="M31.5 16.343c0-8.562-6.938-15.5-15.5-15.5s-15.5 6.938-15.5 15.5c0 7.75 5.625 14.188 13.062 15.312v-10.812h-3.938v-4.5h3.938v-3.375c0-3.876 2.313-6.063 5.812-6.063 1.751 0 3.501 0.313 3.501 0.313v3.813h-1.938c-1.937 0-2.562 1.187-2.562 2.437v2.875h4.312l-0.688 4.5h-3.624v10.812c7.437-1.125 13.125-7.562 13.125-15.312z"></path>
</symbol>
<symbol id="icon-logo" viewBox="0 0 36 32">
<path d="M33.47 2.226c-3.382 0.188-10.107 0.876-14.257 3.378-0.286 0.172-0.449 0.48-0.449 0.8v22.11c0 0.702 0.78 1.146 1.437 0.82 4.27-2.116 10.446-2.693 13.5-2.851 1.042-0.054 1.852-0.877 1.852-1.863v-20.529c0.001-1.076-0.948-1.929-2.084-1.865zM16.341 5.604c-4.15-2.501-10.874-3.188-14.256-3.378-1.138-0.063-2.085 0.789-2.085 1.865v20.53c0 0.987 0.811 1.809 1.853 1.863 3.055 0.157 9.234 0.735 13.504 2.852 0.656 0.325 1.433-0.118 1.433-0.818v-22.125c0-0.322-0.162-0.616-0.449-0.789z"></path>
</symbol>
</defs>
</svg>
